<svg xmlns="http://www.w3.org/2000/svg" xmlns:xlink="http://www.w3.org/1999/xlink" width="472" zoomAndPan="magnify" viewBox="0 0 354 118.499997" height="158" preserveAspectRatio="xMidYMid meet" version="1.0"><defs><clipPath id="36a36e2226"><path d="M 270.304688 0.820312 L 339.445312 0.820312 L 339.445312 25.648438 L 270.304688 25.648438 Z M 270.304688 0.820312 " clip-rule="nonzero"/></clipPath><clipPath id="ab84e4aa20"><path d="M 275.53125 0.820312 L 334.203125 0.820312 C 335.589844 0.820312 336.917969 1.371094 337.898438 2.351562 C 338.878906 3.332031 339.429688 4.664062 339.429688 6.050781 L 339.429688 20.417969 C 339.429688 21.804688 338.878906 23.136719 337.898438 24.117188 C 336.917969 25.097656 335.589844 25.648438 334.203125 25.648438 L 275.53125 25.648438 C 274.144531 25.648438 272.816406 25.097656 271.835938 24.117188 C 270.855469 23.136719 270.304688 21.804688 270.304688 20.417969 L 270.304688 6.050781 C 270.304688 4.664062 270.855469 3.332031 271.835938 2.351562 C 272.816406 1.371094 274.144531 0.820312 275.53125 0.820312 Z M 275.53125 0.820312 " clip-rule="nonzero"/></clipPath><clipPath id="945fabd429"><path d="M 327.011719 6.066406 L 351.839844 6.066406 L 351.839844 81.417969 L 327.011719 81.417969 Z M 327.011719 6.066406 " clip-rule="nonzero"/></clipPath><clipPath id="f9d929dcdc"><path d="M 351.839844 11.296875 L 351.839844 76.113281 C 351.839844 77.5 351.289062 78.832031 350.308594 79.8125 C 349.328125 80.792969 347.996094 81.34375 346.609375 81.34375 L 332.242188 81.34375 C 330.855469 81.34375 329.523438 80.792969 328.542969 79.8125 C 327.5625 78.832031 327.011719 77.5 327.011719 76.113281 L 327.011719 11.296875 C 327.011719 9.910156 327.5625 8.578125 328.542969 7.597656 C 329.523438 6.617188 330.855469 6.066406 332.242188 6.066406 L 346.609375 6.066406 C 347.996094 6.066406 349.328125 6.617188 350.308594 7.597656 C 351.289062 8.578125 351.839844 9.910156 351.839844 11.296875 Z M 351.839844 11.296875 " clip-rule="nonzero"/></clipPath><clipPath id="16bdf690de"><path d="M 327.015625 35.636719 L 351.839844 35.636719 L 351.839844 109.4375 L 327.015625 109.4375 Z M 327.015625 35.636719 " clip-rule="nonzero"/></clipPath><clipPath id="16bf475f95"><path d="M 351.839844 40.867188 L 351.839844 104.117188 C 351.839844 105.503906 351.289062 106.832031 350.308594 107.8125 C 349.328125 108.792969 348 109.34375 346.613281 109.34375 L 332.242188 109.34375 C 330.855469 109.34375 329.527344 108.792969 328.546875 107.8125 C 327.566406 106.832031 327.015625 105.503906 327.015625 104.117188 L 327.015625 40.867188 C 327.015625 39.480469 327.566406 38.148438 328.546875 37.167969 C 329.527344 36.1875 330.855469 35.636719 332.242188 35.636719 L 346.613281 35.636719 C 348 35.636719 349.328125 36.1875 350.308594 37.167969 C 351.289062 38.148438 351.839844 39.480469 351.839844 40.867188 Z M 351.839844 40.867188 " clip-rule="nonzero"/></clipPath><clipPath id="a56ff7ec81"><path d="M 284.011719 47.546875 L 351.898438 47.546875 L 351.898438 69.433594 L 284.011719 69.433594 Z M 284.011719 47.546875 " clip-rule="nonzero"/></clipPath><clipPath id="f7455bd05f"><path d="M 289.238281 47.546875 L 346.617188 47.546875 C 348.003906 47.546875 349.332031 48.097656 350.3125 49.078125 C 351.292969 50.058594 351.84375 51.386719 351.84375 52.773438 L 351.84375 64.207031 C 351.84375 65.59375 351.292969 66.921875 350.3125 67.902344 C 349.332031 68.882812 348.003906 69.433594 346.617188 69.433594 L 289.238281 69.433594 C 287.851562 69.433594 286.523438 68.882812 285.542969 67.902344 C 284.5625 66.921875 284.011719 65.59375 284.011719 64.207031 L 284.011719 52.773438 C 284.011719 51.386719 284.5625 50.058594 285.542969 49.078125 C 286.523438 48.097656 287.851562 47.546875 289.238281 47.546875 Z M 289.238281 47.546875 " clip-rule="nonzero"/></clipPath><clipPath id="8a32754c18"><path d="M 270.304688 92.355469 L 341.480469 92.355469 L 341.480469 117.179688 L 270.304688 117.179688 Z M 270.304688 92.355469 " clip-rule="nonzero"/></clipPath><clipPath id="9bb05fa451"><path d="M 275.53125 92.355469 L 336.226562 92.355469 C 337.613281 92.355469 338.945312 92.90625 339.925781 93.886719 C 340.90625 94.867188 341.457031 96.195312 341.457031 97.582031 L 341.457031 111.953125 C 341.457031 113.339844 340.90625 114.667969 339.925781 115.648438 C 338.945312 116.628906 337.613281 117.179688 336.226562 117.179688 L 275.53125 117.179688 C 274.144531 117.179688 272.816406 116.628906 271.835938 115.648438 C 270.855469 114.667969 270.304688 113.339844 270.304688 111.953125 L 270.304688 97.582031 C 270.304688 96.195312 270.855469 94.867188 271.835938 93.886719 C 272.816406 92.90625 274.144531 92.355469 275.53125 92.355469 Z M 275.53125 92.355469 " clip-rule="nonzero"/></clipPath><clipPath id="374bb10e0f"><path d="M 15 1.097656 L 257.820312 1.097656 L 257.820312 116.859375 L 15 116.859375 Z M 15 1.097656 " clip-rule="nonzero"/></clipPath><clipPath id="66bc0319c6"><path d="M 3.144531 1.097656 L 28 1.097656 L 28 59 L 3.144531 59 Z M 3.144531 1.097656 " clip-rule="nonzero"/></clipPath><clipPath id="c15470cfa7"><path d="M 3.144531 1.097656 L 32 1.097656 L 32 63 L 3.144531 63 Z M 3.144531 1.097656 " clip-rule="nonzero"/></clipPath><clipPath id="bafe5143c4"><path d="M 58 3 L 83 3 L 83 116.859375 L 58 116.859375 Z M 58 3 " clip-rule="nonzero"/></clipPath><clipPath id="f8608bf514"><path d="M 54 1.097656 L 87 1.097656 L 87 116.859375 L 54 116.859375 Z M 54 1.097656 " clip-rule="nonzero"/></clipPath></defs><g clip-path="url(#36a36e2226)"><g clip-path="url(#ab84e4aa20)"><path fill="#8591fe" d="M 270.304688 0.820312 L 339.445312 0.820312 L 339.445312 25.648438 L 270.304688 25.648438 Z M 270.304688 0.820312 " fill-opacity="1" fill-rule="nonzero"/></g></g><g clip-path="url(#945fabd429)"><g clip-path="url(#f9d929dcdc)"><path fill="#8591fe" d="M 351.839844 6.066406 L 351.839844 81.320312 L 327.011719 81.320312 L 327.011719 6.066406 Z M 351.839844 6.066406 " fill-opacity="1" fill-rule="nonzero"/></g></g><g clip-path="url(#16bdf690de)"><g clip-path="url(#16bf475f95)"><path fill="#8591fe" d="M 351.839844 35.636719 L 351.839844 109.339844 L 327.015625 109.339844 L 327.015625 35.636719 Z M 351.839844 35.636719 " fill-opacity="1" fill-rule="nonzero"/></g></g><g clip-path="url(#a56ff7ec81)"><g clip-path="url(#f7455bd05f)"><path fill="#8591fe" d="M 284.011719 47.546875 L 351.8125 47.546875 L 351.8125 69.433594 L 284.011719 69.433594 Z M 284.011719 47.546875 " fill-opacity="1" fill-rule="nonzero"/></g></g><g clip-path="url(#8a32754c18)"><g clip-path="url(#9bb05fa451)"><path fill="#8591fe" d="M 270.304688 92.355469 L 341.480469 92.355469 L 341.480469 117.179688 L 270.304688 117.179688 Z M 270.304688 92.355469 " fill-opacity="1" fill-rule="nonzero"/></g></g><path stroke-linecap="butt" transform="matrix(0.73289, 0, 0, 0.73289, 3.257574, 1.098429)" fill-opacity="1" fill="#8591fe" fill-rule="nonzero" stroke-linejoin="miter" d="M 205.735611 41.700316 L 222.615498 41.700316 C 222.961944 41.700316 223.297729 41.769605 223.622855 41.902853 C 223.942651 42.036101 224.230467 42.227979 224.475644 42.473156 C 224.720821 42.718332 224.912698 43.006149 225.045946 43.325944 C 225.179195 43.65107 225.248484 43.986856 225.248484 44.338631 L 225.248484 59.779437 C 225.248484 60.131213 225.179195 60.466998 225.045946 60.792124 C 224.912698 61.11192 224.720821 61.399736 224.475644 61.644913 C 224.230467 61.890089 223.942651 62.081967 223.622855 62.215215 C 223.297729 62.348463 222.961944 62.417752 222.615498 62.417752 L 205.735611 62.417752 C 205.389166 62.417752 205.05338 62.348463 204.728254 62.215215 C 204.408459 62.081967 204.120642 61.890089 203.875466 61.644913 C 203.624959 61.399736 203.438411 61.11192 203.305163 60.792124 C 203.171915 60.466998 203.102626 60.131213 203.102626 59.779437 L 203.102626 44.338631 C 203.102626 43.986856 203.171915 43.65107 203.305163 43.325944 C 203.438411 43.006149 203.624959 42.718332 203.875466 42.473156 C 204.120642 42.227979 204.408459 42.036101 204.728254 41.902853 C 205.05338 41.769605 205.389166 41.700316 205.735611 41.700316 Z M 205.735611 41.700316 " stroke="#7592ff" stroke-width="0.753" stroke-opacity="1" stroke-miterlimit="4"/><path stroke-linecap="butt" transform="matrix(0.73289, 0, 0, 0.73289, 3.257574, 1.098429)" fill-opacity="1" fill="#8591fe" fill-rule="nonzero" stroke-linejoin="miter" d="M 249.387735 41.700316 L 266.262292 41.700316 C 266.614068 41.700316 266.949853 41.769605 267.269649 41.902853 C 267.594775 42.036101 267.877261 42.227979 268.127768 42.473156 C 268.372945 42.718332 268.564822 43.006149 268.69807 43.325944 C 268.831318 43.65107 268.895278 43.986856 268.895278 44.338631 L 268.895278 59.779437 C 268.895278 60.131213 268.831318 60.466998 268.69807 60.792124 C 268.564822 61.11192 268.372945 61.399736 268.127768 61.644913 C 267.877261 61.890089 267.594775 62.081967 267.269649 62.215215 C 266.949853 62.348463 266.614068 62.417752 266.262292 62.417752 L 249.387735 62.417752 C 249.03596 62.417752 248.700174 62.348463 248.380378 62.215215 C 248.055253 62.081967 247.772766 61.890089 247.52226 61.644913 C 247.277083 61.399736 247.085205 61.11192 246.951957 60.792124 C 246.818709 60.466998 246.74942 60.131213 246.74942 59.779437 L 246.74942 44.338631 C 246.74942 43.986856 246.818709 43.65107 246.951957 43.325944 C 247.085205 43.006149 247.277083 42.718332 247.52226 42.473156 C 247.772766 42.227979 248.055253 42.036101 248.380378 41.902853 C 248.700174 41.769605 249.03596 41.700316 249.387735 41.700316 Z M 249.387735 41.700316 " stroke="#7592ff" stroke-width="0.753" stroke-opacity="1" stroke-miterlimit="4"/><path stroke-linecap="butt" transform="matrix(0.73289, 0, 0, 0.73289, 3.257574, 1.098429)" fill-opacity="1" fill="#8591fe" fill-rule="nonzero" stroke-linejoin="miter" d="M 260.836424 98.22955 L 277.710981 98.22955 C 278.062757 98.22955 278.398542 98.298839 278.718338 98.432087 C 279.043464 98.565335 279.32595 98.757213 279.576457 99.00239 C 279.821633 99.247566 280.013511 99.535383 280.146759 99.855178 C 280.280007 100.180304 280.343967 100.51609 280.343967 100.862535 L 280.343967 116.308671 C 280.343967 116.660447 280.280007 116.996232 280.146759 117.321358 C 280.013511 117.641154 279.821633 117.92897 279.576457 118.174147 C 279.32595 118.419323 279.043464 118.611201 278.718338 118.744449 C 278.398542 118.877697 278.062757 118.946986 277.710981 118.946986 L 260.836424 118.946986 C 260.484649 118.946986 260.148863 118.877697 259.829067 118.744449 C 259.503942 118.611201 259.221455 118.419323 258.970949 118.174147 C 258.725772 117.92897 258.533894 117.641154 258.400646 117.321358 C 258.267398 116.996232 258.203439 116.660447 258.203439 116.308671 L 258.203439 100.862535 C 258.203439 100.51609 258.267398 100.180304 258.400646 99.855178 C 258.533894 99.535383 258.725772 99.247566 258.970949 99.00239 C 259.221455 98.757213 259.503942 98.565335 259.829067 98.432087 C 260.148863 98.298839 260.484649 98.22955 260.836424 98.22955 Z M 260.836424 98.22955 " stroke="#7592ff" stroke-width="0.753" stroke-opacity="1" stroke-miterlimit="4"/><path stroke-linecap="butt" transform="matrix(0.73289, 0, 0, 0.73289, 3.257574, 1.098429)" fill-opacity="1" fill="#8591fe" fill-rule="nonzero" stroke-linejoin="miter" d="M 194.286922 98.22955 L 211.166809 98.22955 C 211.513255 98.22955 211.84904 98.298839 212.174166 98.432087 C 212.493962 98.565335 212.781778 98.757213 213.026955 99.00239 C 213.272132 99.247566 213.464009 99.535383 213.597257 99.855178 C 213.730506 100.180304 213.799795 100.51609 213.799795 100.862535 L 213.799795 116.308671 C 213.799795 116.660447 213.730506 116.996232 213.597257 117.321358 C 213.464009 117.641154 213.272132 117.92897 213.026955 118.174147 C 212.781778 118.419323 212.493962 118.611201 212.174166 118.744449 C 211.84904 118.877697 211.513255 118.946986 211.166809 118.946986 L 194.286922 118.946986 C 193.940477 118.946986 193.604691 118.877697 193.279565 118.744449 C 192.95977 118.611201 192.671953 118.419323 192.426777 118.174147 C 192.17627 117.92897 191.989722 117.641154 191.856474 117.321358 C 191.723226 116.996232 191.653937 116.660447 191.653937 116.308671 L 191.653937 100.862535 C 191.653937 100.51609 191.723226 100.180304 191.856474 99.855178 C 191.989722 99.535383 192.17627 99.247566 192.426777 99.00239 C 192.671953 98.757213 192.95977 98.565335 193.279565 98.432087 C 193.604691 98.298839 193.940477 98.22955 194.286922 98.22955 Z M 194.286922 98.22955 " stroke="#7592ff" stroke-width="0.753" stroke-opacity="1" stroke-miterlimit="4"/><path stroke-linecap="butt" transform="matrix(0.73289, 0, 0, 0.73289, 3.257574, 1.098429)" fill-opacity="1" fill="#8591fe" fill-rule="nonzero" stroke-linejoin="miter" d="M 210.031534 82.847373 L 262.328804 82.847373 C 262.67525 82.847373 263.011035 82.911332 263.336161 83.04991 C 263.661287 83.183158 263.943773 83.369706 264.18895 83.620213 C 264.439456 83.865389 264.626004 84.147876 264.759252 84.473001 C 264.8925 84.798127 264.96179 85.133913 264.96179 85.480358 L 264.96179 100.926494 C 264.96179 101.27827 264.8925 101.614055 264.759252 101.933851 C 264.626004 102.258977 264.439456 102.541463 264.18895 102.79197 C 263.943773 103.037146 263.661287 103.229024 263.336161 103.362272 C 263.011035 103.49552 262.67525 103.559479 262.328804 103.559479 L 210.031534 103.559479 C 209.679759 103.559479 209.343973 103.49552 209.024178 103.362272 C 208.699052 103.229024 208.416566 103.037146 208.166059 102.79197 C 207.920882 102.541463 207.729005 102.258977 207.595757 101.933851 C 207.462508 101.614055 207.398549 101.27827 207.398549 100.926494 L 207.398549 85.480358 C 207.398549 85.133913 207.462508 84.798127 207.595757 84.473001 C 207.729005 84.147876 207.920882 83.865389 208.166059 83.620213 C 208.416566 83.369706 208.699052 83.183158 209.024178 83.04991 C 209.343973 82.911332 209.679759 82.847373 210.031534 82.847373 Z M 210.031534 82.847373 " stroke="#7592ff" stroke-width="0.753" stroke-opacity="1" stroke-miterlimit="4"/><g clip-path="url(#374bb10e0f)"><path stroke-linecap="butt" transform="matrix(0.73289, 0, 0, 0.73289, 3.257574, 1.098429)" fill="none" stroke-linejoin="miter" d="M 180.770221 15.167926 L 291.233013 15.167926 C 292.149761 15.167926 293.061179 15.210565 293.977927 15.301174 C 294.889345 15.391783 295.795433 15.525031 296.690861 15.706249 C 297.591619 15.882136 298.481717 16.105993 299.361156 16.37249 C 300.235264 16.638986 301.098713 16.948122 301.946172 17.299898 C 302.79363 17.651673 303.619769 18.040758 304.429919 18.472482 C 305.240068 18.904207 306.023568 19.37857 306.785748 19.884914 C 307.547928 20.396587 308.283458 20.94024 308.992339 21.521202 C 309.701219 22.102164 310.38345 22.720436 311.028372 23.365358 C 311.678623 24.015609 312.291565 24.69251 312.877857 25.401391 C 313.45882 26.110271 314.002472 26.851132 314.514146 27.613312 C 315.020489 28.375492 315.494853 29.158991 315.926577 29.969141 C 316.358301 30.77929 316.747386 31.605429 317.099162 32.452888 C 317.450937 33.300347 317.760073 34.163795 318.026569 35.037904 C 318.293066 35.917342 318.511593 36.80744 318.692811 37.702869 C 318.874028 38.603627 319.007276 39.509715 319.097885 40.421133 C 319.188494 41.332551 319.231133 42.249299 319.231133 43.166046 L 319.231133 117.475926 C 319.231133 118.392674 319.188494 119.309422 319.097885 120.22084 C 319.007276 121.137588 318.874028 122.043676 318.692811 122.939104 C 318.511593 123.839862 318.293066 124.72996 318.026569 125.604069 C 317.760073 126.483507 317.450937 127.346956 317.099162 128.194414 C 316.747386 129.041873 316.358301 129.868012 315.926577 130.678162 C 315.494853 131.488311 315.020489 132.271811 314.514146 133.033991 C 314.002472 133.796171 313.45882 134.531701 312.877857 135.240581 C 312.291565 135.949462 311.678623 136.626363 311.028372 137.276615 C 310.38345 137.926866 309.701219 138.539808 308.992339 139.12077 C 308.283458 139.701733 307.547928 140.250715 306.785748 140.757059 C 306.023568 141.268732 305.240068 141.737766 304.429919 142.16949 C 303.619769 142.606544 302.79363 142.995629 301.946172 143.347404 C 301.098713 143.69918 300.235264 144.008316 299.361156 144.274812 C 298.481717 144.535979 297.591619 144.759836 296.690861 144.941053 C 295.795433 145.116941 294.889345 145.255519 293.977927 145.340798 C 293.061179 145.431407 292.149761 145.479376 291.233013 145.479376 L 180.770221 145.479376 C 179.853473 145.479376 178.936725 145.431407 178.025307 145.340798 C 177.113889 145.255519 176.207801 145.116941 175.307043 144.941053 C 174.406284 144.759836 173.516186 144.535979 172.642078 144.274812 C 171.762639 144.008316 170.899191 143.69918 170.051732 143.347404 C 169.204273 142.995629 168.378134 142.606544 167.567985 142.16949 C 166.763165 141.737766 165.974336 141.268732 165.212156 140.757059 C 164.449976 140.250715 163.714446 139.701733 163.005565 139.12077 C 162.296684 138.539808 161.619783 137.926866 160.969532 137.276615 C 160.31928 136.626363 159.706338 135.949462 159.125376 135.240581 C 158.544414 134.531701 157.995431 133.796171 157.489088 133.033991 C 156.977414 132.271811 156.508381 131.488311 156.076656 130.678162 C 155.644932 129.868012 155.250517 129.041873 154.898742 128.194414 C 154.546967 127.346956 154.243161 126.483507 153.976664 125.604069 C 153.710168 124.72996 153.486311 123.839862 153.305093 122.939104 C 153.129205 122.043676 152.995957 121.137588 152.905348 120.22084 C 152.814739 119.309422 152.76677 118.392674 152.76677 117.475926 L 152.76677 43.166046 C 152.76677 42.249299 152.814739 41.332551 152.905348 40.421133 C 152.995957 39.509715 153.129205 38.603627 153.305093 37.702869 C 153.486311 36.80744 153.710168 35.917342 153.976664 35.037904 C 154.243161 34.163795 154.546967 33.300347 154.898742 32.452888 C 155.250517 31.605429 155.644932 30.77929 156.076656 29.969141 C 156.508381 29.158991 156.977414 28.375492 157.489088 27.613312 C 157.995431 26.851132 158.544414 26.110271 159.125376 25.401391 C 159.706338 24.69251 160.31928 24.015609 160.969532 23.365358 C 161.619783 22.720436 162.296684 22.102164 163.005565 21.521202 C 163.714446 20.94024 164.449976 20.396587 165.212156 19.884914 C 165.974336 19.37857 166.763165 18.904207 167.567985 18.472482 C 168.378134 18.040758 169.204273 17.651673 170.051732 17.299898 C 170.899191 16.948122 171.762639 16.638986 172.642078 16.37249 C 173.516186 16.105993 174.406284 15.882136 175.307043 15.706249 C 176.207801 15.525031 177.113889 15.391783 178.025307 15.301174 C 178.936725 15.210565 179.853473 15.167926 180.770221 15.167926 Z M 180.770221 15.167926 " stroke="#7592ff" stroke-width="24" stroke-opacity="1" stroke-miterlimit="4"/></g><g clip-path="url(#66bc0319c6)"><path fill="#8591fe" d="M 7.878906 1.480469 L 22.609375 1.480469 C 22.910156 1.480469 23.207031 1.511719 23.503906 1.570312 C 23.800781 1.628906 24.085938 1.714844 24.367188 1.832031 C 24.644531 1.945312 24.910156 2.085938 25.160156 2.253906 C 25.410156 2.421875 25.640625 2.613281 25.855469 2.824219 C 26.066406 3.039062 26.257812 3.269531 26.425781 3.519531 C 26.59375 3.773438 26.734375 4.035156 26.847656 4.316406 C 26.964844 4.59375 27.050781 4.878906 27.109375 5.175781 C 27.167969 5.472656 27.199219 5.769531 27.199219 6.070312 L 27.199219 53.761719 C 27.199219 54.0625 27.167969 54.359375 27.109375 54.65625 C 27.050781 54.953125 26.964844 55.238281 26.847656 55.515625 C 26.734375 55.796875 26.59375 56.058594 26.425781 56.308594 C 26.257812 56.5625 26.066406 56.792969 25.855469 57.007812 C 25.640625 57.21875 25.410156 57.410156 25.160156 57.578125 C 24.910156 57.746094 24.644531 57.886719 24.367188 58 C 24.085938 58.117188 23.800781 58.203125 23.503906 58.261719 C 23.207031 58.320312 22.910156 58.351562 22.609375 58.351562 L 7.878906 58.351562 C 7.578125 58.351562 7.277344 58.320312 6.980469 58.261719 C 6.6875 58.203125 6.398438 58.117188 6.121094 58 C 5.84375 57.886719 5.578125 57.746094 5.328125 57.578125 C 5.078125 57.410156 4.84375 57.21875 4.632812 57.007812 C 4.417969 56.792969 4.230469 56.5625 4.0625 56.308594 C 3.894531 56.058594 3.753906 55.796875 3.636719 55.515625 C 3.523438 55.238281 3.433594 54.953125 3.375 54.65625 C 3.316406 54.359375 3.289062 54.0625 3.289062 53.761719 L 3.289062 6.070312 C 3.289062 5.769531 3.316406 5.472656 3.375 5.175781 C 3.433594 4.878906 3.523438 4.59375 3.636719 4.316406 C 3.753906 4.035156 3.894531 3.773438 4.0625 3.519531 C 4.230469 3.269531 4.417969 3.039062 4.632812 2.824219 C 4.84375 2.613281 5.078125 2.421875 5.328125 2.253906 C 5.578125 2.085938 5.84375 1.945312 6.121094 1.832031 C 6.398438 1.714844 6.6875 1.628906 6.980469 1.570312 C 7.277344 1.511719 7.578125 1.480469 7.878906 1.480469 Z M 7.878906 1.480469 " fill-opacity="1" fill-rule="nonzero"/></g><g clip-path="url(#c15470cfa7)"><path stroke-linecap="butt" transform="matrix(0.73289, 0, 0, 0.73289, 3.257574, 1.098429)" fill="none" stroke-linejoin="miter" d="M 6.305633 0.521279 L 26.404797 0.521279 C 26.815202 0.521279 27.220277 0.563919 27.625351 0.643868 C 28.030426 0.723816 28.419511 0.841075 28.803266 1.000973 C 29.181691 1.155541 29.544126 1.347418 29.885242 1.576605 C 30.226357 1.805792 30.540823 2.066959 30.833969 2.354775 C 31.121785 2.647921 31.382952 2.962387 31.612139 3.303502 C 31.841326 3.649948 32.033203 4.007053 32.187771 4.390808 C 32.347669 4.769233 32.464927 5.158318 32.544876 5.563393 C 32.624825 5.968467 32.667465 6.373542 32.667465 6.783946 L 32.667465 71.857058 C 32.667465 72.267462 32.624825 72.672537 32.544876 73.077612 C 32.464927 73.482686 32.347669 73.871771 32.187771 74.250196 C 32.033203 74.633951 31.841326 74.991056 31.612139 75.332172 C 31.382952 75.678617 31.121785 75.993083 30.833969 76.286229 C 30.540823 76.574046 30.226357 76.835212 29.885242 77.064399 C 29.544126 77.293586 29.181691 77.485464 28.803266 77.640032 C 28.419511 77.799929 28.030426 77.917188 27.625351 77.997137 C 27.220277 78.077086 26.815202 78.119725 26.404797 78.119725 L 6.305633 78.119725 C 5.895228 78.119725 5.484823 78.077086 5.079749 77.997137 C 4.680004 77.917188 4.285589 77.799929 3.907164 77.640032 C 3.528739 77.485464 3.166304 77.293586 2.825189 77.064399 C 2.484073 76.835212 2.164277 76.574046 1.876461 76.286229 C 1.583315 75.993083 1.327478 75.678617 1.098291 75.332172 C 0.869104 74.991056 0.677227 74.633951 0.517329 74.250196 C 0.362761 73.871771 0.240173 73.482686 0.160224 73.077612 C 0.0802748 72.672537 0.0429653 72.267462 0.0429653 71.857058 L 0.0429653 6.783946 C 0.0429653 6.373542 0.0802748 5.968467 0.160224 5.563393 C 0.240173 5.158318 0.362761 4.769233 0.517329 4.390808 C 0.677227 4.007053 0.869104 3.649948 1.098291 3.303502 C 1.327478 2.962387 1.583315 2.647921 1.876461 2.354775 C 2.164277 2.066959 2.484073 1.805792 2.825189 1.576605 C 3.166304 1.347418 3.528739 1.155541 3.907164 1.000973 C 4.285589 0.841075 4.680004 0.723816 5.079749 0.643868 C 5.484823 0.563919 5.895228 0.521279 6.305633 0.521279 Z M 6.305633 0.521279 " stroke="#7592ff" stroke-width="1" stroke-opacity="1" stroke-miterlimit="4"/></g><g clip-path="url(#bafe5143c4)"><path fill="#8591fe" d="M 63.453125 3.421875 L 78.183594 3.421875 C 78.488281 3.421875 78.785156 3.449219 79.082031 3.507812 C 79.375 3.566406 79.664062 3.652344 79.941406 3.769531 C 80.21875 3.886719 80.484375 4.027344 80.734375 4.195312 C 80.984375 4.359375 81.21875 4.550781 81.429688 4.765625 C 81.644531 4.976562 81.835938 5.210938 82 5.460938 C 82.167969 5.710938 82.3125 5.976562 82.425781 6.253906 C 82.542969 6.53125 82.628906 6.820312 82.6875 7.113281 C 82.746094 7.410156 82.773438 7.707031 82.773438 8.011719 L 82.773438 111.921875 C 82.773438 112.222656 82.746094 112.523438 82.6875 112.816406 C 82.628906 113.113281 82.542969 113.402344 82.425781 113.679688 C 82.3125 113.957031 82.167969 114.222656 82 114.472656 C 81.835938 114.722656 81.644531 114.953125 81.429688 115.167969 C 81.21875 115.382812 80.984375 115.570312 80.734375 115.738281 C 80.484375 115.90625 80.21875 116.046875 79.941406 116.164062 C 79.664062 116.277344 79.375 116.367188 79.082031 116.425781 C 78.785156 116.484375 78.488281 116.511719 78.183594 116.511719 L 63.453125 116.511719 C 63.152344 116.511719 62.855469 116.484375 62.558594 116.425781 C 62.261719 116.367188 61.976562 116.277344 61.699219 116.164062 C 61.417969 116.046875 61.15625 115.90625 60.902344 115.738281 C 60.652344 115.570312 60.421875 115.382812 60.207031 115.167969 C 59.996094 114.953125 59.804688 114.722656 59.636719 114.472656 C 59.46875 114.222656 59.328125 113.957031 59.214844 113.679688 C 59.097656 113.402344 59.011719 113.113281 58.953125 112.816406 C 58.894531 112.523438 58.863281 112.222656 58.863281 111.921875 L 58.863281 8.011719 C 58.863281 7.707031 58.894531 7.410156 58.953125 7.113281 C 59.011719 6.820312 59.097656 6.53125 59.214844 6.253906 C 59.328125 5.976562 59.46875 5.710938 59.636719 5.460938 C 59.804688 5.210938 59.996094 4.976562 60.207031 4.765625 C 60.421875 4.550781 60.652344 4.359375 60.902344 4.195312 C 61.15625 4.027344 61.417969 3.886719 61.699219 3.769531 C 61.976562 3.652344 62.261719 3.566406 62.558594 3.507812 C 62.855469 3.449219 63.152344 3.421875 63.453125 3.421875 Z M 63.453125 3.421875 " fill-opacity="1" fill-rule="nonzero"/></g><g clip-path="url(#f8608bf514)"><path stroke-linecap="butt" transform="matrix(0.73289, 0, 0, 0.73289, 3.257574, 1.098429)" fill="none" stroke-linejoin="miter" d="M 82.134542 3.170254 L 102.233707 3.170254 C 102.649441 3.170254 103.054516 3.207564 103.459591 3.287513 C 103.859335 3.367462 104.25375 3.48472 104.632175 3.644618 C 105.0106 3.804516 105.373035 3.996393 105.714151 4.22558 C 106.055266 4.449437 106.375062 4.710604 106.662878 5.00375 C 106.956025 5.291566 107.217191 5.611362 107.441048 5.952477 C 107.670235 6.293593 107.867442 6.656028 108.02201 7.034453 C 108.181908 7.412878 108.299167 7.807293 108.379116 8.207038 C 108.459065 8.612112 108.496374 9.017187 108.496374 9.432922 L 108.496374 151.214381 C 108.496374 151.624785 108.459065 152.03519 108.379116 152.434935 C 108.299167 152.840009 108.181908 153.234424 108.02201 153.612849 C 107.867442 153.991274 107.670235 154.353709 107.441048 154.694825 C 107.217191 155.03594 106.956025 155.350406 106.662878 155.643552 C 106.375062 155.936698 106.055266 156.192535 105.714151 156.421722 C 105.373035 156.650909 105.0106 156.842786 104.632175 157.002684 C 104.25375 157.157252 103.859335 157.279841 103.459591 157.35979 C 103.054516 157.439739 102.649441 157.477048 102.233707 157.477048 L 82.134542 157.477048 C 81.724137 157.477048 81.319063 157.439739 80.913988 157.35979 C 80.508914 157.279841 80.119829 157.157252 79.741404 157.002684 C 79.357649 156.842786 79.000543 156.650909 78.654098 156.421722 C 78.312982 156.192535 77.998517 155.936698 77.705371 155.643552 C 77.417554 155.350406 77.156388 155.03594 76.927201 154.694825 C 76.698014 154.353709 76.506136 153.991274 76.351568 153.612849 C 76.19167 153.234424 76.074412 152.840009 75.994463 152.434935 C 75.914514 152.03519 75.871875 151.624785 75.871875 151.214381 L 75.871875 9.432922 C 75.871875 9.017187 75.914514 8.612112 75.994463 8.207038 C 76.074412 7.807293 76.19167 7.412878 76.351568 7.034453 C 76.506136 6.656028 76.698014 6.293593 76.927201 5.952477 C 77.156388 5.611362 77.417554 5.291566 77.705371 5.00375 C 77.998517 4.710604 78.312982 4.449437 78.654098 4.22558 C 79.000543 3.996393 79.357649 3.804516 79.741404 3.644618 C 80.119829 3.48472 80.508914 3.367462 80.913988 3.287513 C 81.319063 3.207564 81.724137 3.170254 82.134542 3.170254 Z M 82.134542 3.170254 " stroke="#7592ff" stroke-width="1" stroke-opacity="1" stroke-miterlimit="4"/></g><path stroke-linecap="butt" transform="matrix(0, -0.73289, 0.73289, 0, -51.379276, 80.351431)" fill-opacity="1" fill="#8591fe" fill-rule="nonzero" stroke-linejoin="miter" d="M 23.057096 91.344839 L 43.156261 91.344839 C 43.566665 91.344839 43.97707 91.382149 44.376815 91.462098 C 44.781889 91.542047 45.176304 91.664635 45.554729 91.819203 C 45.933154 91.979101 46.295589 92.170979 46.636705 92.400166 C 46.97782 92.629352 47.292286 92.885189 47.585432 93.178335 C 47.878579 93.471481 48.134415 93.785947 48.363602 94.127063 C 48.592789 94.468178 48.784667 94.830613 48.944564 95.209038 C 49.099132 95.592793 49.221721 95.981878 49.30167 96.386953 C 49.381619 96.786698 49.418928 97.197102 49.418928 97.607507 L 49.418928 162.675288 C 49.418928 163.085693 49.381619 163.496097 49.30167 163.901172 C 49.221721 164.300917 49.099132 164.695332 48.944564 165.073757 C 48.784667 165.452182 48.592789 165.814617 48.363602 166.155732 C 48.134415 166.496848 47.878579 166.816644 47.585432 167.10446 C 47.292286 167.397606 46.97782 167.653443 46.636705 167.882629 C 46.295589 168.111816 45.933154 168.303694 45.554729 168.463592 C 45.176304 168.61816 44.781889 168.740748 44.376815 168.820697 C 43.97707 168.900646 43.566665 168.937956 43.156261 168.937956 L 23.057096 168.937956 C 22.646691 168.937956 22.236287 168.900646 21.836542 168.820697 C 21.431468 168.740748 21.042383 168.61816 20.658628 168.463592 C 20.280203 168.303694 19.917767 168.111816 19.576652 167.882629 C 19.235536 167.653443 18.921071 167.397606 18.627925 167.10446 C 18.340108 166.816644 18.078942 166.496848 17.849755 166.155732 C 17.620568 165.814617 17.42869 165.452182 17.268792 165.073757 C 17.114224 164.695332 16.996966 164.300917 16.911687 163.901172 C 16.831738 163.496097 16.794429 163.085693 16.794429 162.675288 L 16.794429 97.607507 C 16.794429 97.197102 16.831738 96.786698 16.911687 96.386953 C 16.996966 95.981878 17.114224 95.592793 17.268792 95.209038 C 17.42869 94.830613 17.620568 94.468178 17.849755 94.127063 C 18.078942 93.785947 18.340108 93.471481 18.627925 93.178335 C 18.921071 92.885189 19.235536 92.629352 19.576652 92.400166 C 19.917767 92.170979 20.280203 91.979101 20.658628 91.819203 C 21.042383 91.664635 21.431468 91.542047 21.836542 91.462098 C 22.236287 91.382149 22.646691 91.344839 23.057096 91.344839 Z M 23.057096 91.344839 " stroke="#7592ff" stroke-width="1" stroke-opacity="1" stroke-miterlimit="4"/></svg>