<svg xmlns="http://www.w3.org/2000/svg" xmlns:xlink="http://www.w3.org/1999/xlink" width="472" zoomAndPan="magnify" viewBox="0 0 354 118.499997" height="158" preserveAspectRatio="xMidYMid meet" version="1.0"><defs><clipPath id="d04dfd6a34"><path d="M 270.304688 0.820312 L 339.445312 0.820312 L 339.445312 25.648438 L 270.304688 25.648438 Z M 270.304688 0.820312 " clip-rule="nonzero"/></clipPath><clipPath id="fd24261f55"><path d="M 275.53125 0.820312 L 334.203125 0.820312 C 335.589844 0.820312 336.917969 1.371094 337.898438 2.351562 C 338.878906 3.332031 339.429688 4.664062 339.429688 6.050781 L 339.429688 20.417969 C 339.429688 21.804688 338.878906 23.136719 337.898438 24.117188 C 336.917969 25.097656 335.589844 25.648438 334.203125 25.648438 L 275.53125 25.648438 C 274.144531 25.648438 272.816406 25.097656 271.835938 24.117188 C 270.855469 23.136719 270.304688 21.804688 270.304688 20.417969 L 270.304688 6.050781 C 270.304688 4.664062 270.855469 3.332031 271.835938 2.351562 C 272.816406 1.371094 274.144531 0.820312 275.53125 0.820312 Z M 275.53125 0.820312 " clip-rule="nonzero"/></clipPath><clipPath id="0c9477c691"><path d="M 327.011719 6.066406 L 351.839844 6.066406 L 351.839844 81.417969 L 327.011719 81.417969 Z M 327.011719 6.066406 " clip-rule="nonzero"/></clipPath><clipPath id="93b433dac1"><path d="M 351.839844 11.296875 L 351.839844 76.113281 C 351.839844 77.5 351.289062 78.832031 350.308594 79.8125 C 349.328125 80.792969 347.996094 81.34375 346.609375 81.34375 L 332.242188 81.34375 C 330.855469 81.34375 329.523438 80.792969 328.542969 79.8125 C 327.5625 78.832031 327.011719 77.5 327.011719 76.113281 L 327.011719 11.296875 C 327.011719 9.910156 327.5625 8.578125 328.542969 7.597656 C 329.523438 6.617188 330.855469 6.066406 332.242188 6.066406 L 346.609375 6.066406 C 347.996094 6.066406 349.328125 6.617188 350.308594 7.597656 C 351.289062 8.578125 351.839844 9.910156 351.839844 11.296875 Z M 351.839844 11.296875 " clip-rule="nonzero"/></clipPath><clipPath id="9e142c224e"><path d="M 327.015625 35.636719 L 351.839844 35.636719 L 351.839844 109.4375 L 327.015625 109.4375 Z M 327.015625 35.636719 " clip-rule="nonzero"/></clipPath><clipPath id="78e63beae0"><path d="M 351.839844 40.867188 L 351.839844 104.117188 C 351.839844 105.503906 351.289062 106.832031 350.308594 107.8125 C 349.328125 108.792969 348 109.34375 346.613281 109.34375 L 332.242188 109.34375 C 330.855469 109.34375 329.527344 108.792969 328.546875 107.8125 C 327.566406 106.832031 327.015625 105.503906 327.015625 104.117188 L 327.015625 40.867188 C 327.015625 39.480469 327.566406 38.148438 328.546875 37.167969 C 329.527344 36.1875 330.855469 35.636719 332.242188 35.636719 L 346.613281 35.636719 C 348 35.636719 349.328125 36.1875 350.308594 37.167969 C 351.289062 38.148438 351.839844 39.480469 351.839844 40.867188 Z M 351.839844 40.867188 " clip-rule="nonzero"/></clipPath><clipPath id="6bc9a85422"><path d="M 284.011719 47.546875 L 351.898438 47.546875 L 351.898438 69.433594 L 284.011719 69.433594 Z M 284.011719 47.546875 " clip-rule="nonzero"/></clipPath><clipPath id="1657d39a9c"><path d="M 289.238281 47.546875 L 346.617188 47.546875 C 348.003906 47.546875 349.332031 48.097656 350.3125 49.078125 C 351.292969 50.058594 351.84375 51.386719 351.84375 52.773438 L 351.84375 64.207031 C 351.84375 65.59375 351.292969 66.921875 350.3125 67.902344 C 349.332031 68.882812 348.003906 69.433594 346.617188 69.433594 L 289.238281 69.433594 C 287.851562 69.433594 286.523438 68.882812 285.542969 67.902344 C 284.5625 66.921875 284.011719 65.59375 284.011719 64.207031 L 284.011719 52.773438 C 284.011719 51.386719 284.5625 50.058594 285.542969 49.078125 C 286.523438 48.097656 287.851562 47.546875 289.238281 47.546875 Z M 289.238281 47.546875 " clip-rule="nonzero"/></clipPath><clipPath id="2f6f52c274"><path d="M 270.304688 92.355469 L 341.480469 92.355469 L 341.480469 117.179688 L 270.304688 117.179688 Z M 270.304688 92.355469 " clip-rule="nonzero"/></clipPath><clipPath id="6c7ae8feab"><path d="M 275.53125 92.355469 L 336.226562 92.355469 C 337.613281 92.355469 338.945312 92.90625 339.925781 93.886719 C 340.90625 94.867188 341.457031 96.195312 341.457031 97.582031 L 341.457031 111.953125 C 341.457031 113.339844 340.90625 114.667969 339.925781 115.648438 C 338.945312 116.628906 337.613281 117.179688 336.226562 117.179688 L 275.53125 117.179688 C 274.144531 117.179688 272.816406 116.628906 271.835938 115.648438 C 270.855469 114.667969 270.304688 113.339844 270.304688 111.953125 L 270.304688 97.582031 C 270.304688 96.195312 270.855469 94.867188 271.835938 93.886719 C 272.816406 92.90625 274.144531 92.355469 275.53125 92.355469 Z M 275.53125 92.355469 " clip-rule="nonzero"/></clipPath><clipPath id="e7656ef583"><path d="M 15 1.097656 L 263.097656 1.097656 L 263.097656 116.859375 L 15 116.859375 Z M 15 1.097656 " clip-rule="nonzero"/></clipPath><clipPath id="b49ffb8084"><path d="M 3.195312 1.097656 L 28 1.097656 L 28 59 L 3.195312 59 Z M 3.195312 1.097656 " clip-rule="nonzero"/></clipPath><clipPath id="8e8f8270ee"><path d="M 3.195312 1.097656 L 32 1.097656 L 32 63 L 3.195312 63 Z M 3.195312 1.097656 " clip-rule="nonzero"/></clipPath><clipPath id="c4c1a8bb62"><path d="M 59 3 L 84 3 L 84 116.859375 L 59 116.859375 Z M 59 3 " clip-rule="nonzero"/></clipPath><clipPath id="c81a6a7946"><path d="M 54 1.097656 L 88 1.097656 L 88 116.859375 L 54 116.859375 Z M 54 1.097656 " clip-rule="nonzero"/></clipPath></defs><g clip-path="url(#d04dfd6a34)"><g clip-path="url(#fd24261f55)"><path fill="#465fff" d="M 270.304688 0.820312 L 339.445312 0.820312 L 339.445312 25.648438 L 270.304688 25.648438 Z M 270.304688 0.820312 " fill-opacity="1" fill-rule="nonzero"/></g></g><g clip-path="url(#0c9477c691)"><g clip-path="url(#93b433dac1)"><path fill="#465fff" d="M 351.839844 6.066406 L 351.839844 81.320312 L 327.011719 81.320312 L 327.011719 6.066406 Z M 351.839844 6.066406 " fill-opacity="1" fill-rule="nonzero"/></g></g><g clip-path="url(#9e142c224e)"><g clip-path="url(#78e63beae0)"><path fill="#465fff" d="M 351.839844 35.636719 L 351.839844 109.339844 L 327.015625 109.339844 L 327.015625 35.636719 Z M 351.839844 35.636719 " fill-opacity="1" fill-rule="nonzero"/></g></g><g clip-path="url(#6bc9a85422)"><g clip-path="url(#1657d39a9c)"><path fill="#465fff" d="M 284.011719 47.546875 L 351.8125 47.546875 L 351.8125 69.433594 L 284.011719 69.433594 Z M 284.011719 47.546875 " fill-opacity="1" fill-rule="nonzero"/></g></g><g clip-path="url(#2f6f52c274)"><g clip-path="url(#6c7ae8feab)"><path fill="#465fff" d="M 270.304688 92.355469 L 341.480469 92.355469 L 341.480469 117.179688 L 270.304688 117.179688 Z M 270.304688 92.355469 " fill-opacity="1" fill-rule="nonzero"/></g></g><path stroke-linecap="butt" transform="matrix(0.735305, 0, 0, 0.732668, 3.303847, 1.098429)" fill-opacity="1" fill="#465fff" fill-rule="nonzero" stroke-linejoin="miter" d="M 205.735369 41.702265 L 222.612938 41.702265 C 222.963558 41.702265 223.298241 41.766243 223.622299 41.904863 C 223.946357 42.038152 224.227915 42.224756 224.477599 42.475338 C 224.72197 42.720589 224.913218 43.003161 225.046028 43.328385 C 225.178839 43.648278 225.2479 43.984165 225.2479 44.336046 L 225.2479 59.781523 C 225.2479 60.133404 225.178839 60.469292 225.046028 60.789184 C 224.913218 61.114408 224.72197 61.39698 224.477599 61.642231 C 224.227915 61.892813 223.946357 62.079417 223.622299 62.218037 C 223.298241 62.351326 222.963558 62.415304 222.612938 62.415304 L 205.735369 62.415304 C 205.390061 62.415304 205.050066 62.351326 204.731321 62.218037 C 204.407263 62.079417 204.120392 61.892813 203.876021 61.642231 C 203.626337 61.39698 203.435089 61.114408 203.302279 60.789184 C 203.169468 60.469292 203.100407 60.133404 203.100407 59.781523 L 203.100407 44.336046 C 203.100407 43.984165 203.169468 43.648278 203.302279 43.328385 C 203.435089 43.003161 203.626337 42.720589 203.876021 42.475338 C 204.120392 42.224756 204.407263 42.038152 204.731321 41.904863 C 205.050066 41.766243 205.390061 41.702265 205.735369 41.702265 Z M 205.735369 41.702265 " stroke="#465fff" stroke-width="0.753" stroke-opacity="1" stroke-miterlimit="4"/><path stroke-linecap="butt" transform="matrix(0.735305, 0, 0, 0.732668, 3.303847, 1.098429)" fill-opacity="1" fill="#465fff" fill-rule="nonzero" stroke-linejoin="miter" d="M 249.387553 41.702265 L 266.265123 41.702265 C 266.61043 41.702265 266.950425 41.766243 267.269171 41.904863 C 267.593228 42.038152 267.880099 42.224756 268.124471 42.475338 C 268.374155 42.720589 268.565402 43.003161 268.698213 43.328385 C 268.831023 43.648278 268.894772 43.984165 268.894772 44.336046 L 268.894772 59.781523 C 268.894772 60.133404 268.831023 60.469292 268.698213 60.789184 C 268.565402 61.114408 268.374155 61.39698 268.124471 61.642231 C 267.880099 61.892813 267.593228 62.079417 267.269171 62.218037 C 266.950425 62.351326 266.61043 62.415304 266.265123 62.415304 L 249.387553 62.415304 C 249.036933 62.415304 248.70225 62.351326 248.378192 62.218037 C 248.054135 62.079417 247.772576 61.892813 247.522892 61.642231 C 247.278521 61.39698 247.087274 61.114408 246.954463 60.789184 C 246.81634 60.469292 246.752591 60.133404 246.752591 59.781523 L 246.752591 44.336046 C 246.752591 43.984165 246.81634 43.648278 246.954463 43.328385 C 247.087274 43.003161 247.278521 42.720589 247.522892 42.475338 C 247.772576 42.224756 248.054135 42.038152 248.378192 41.904863 C 248.70225 41.766243 249.036933 41.702265 249.387553 41.702265 Z M 249.387553 41.702265 " stroke="#465fff" stroke-width="0.753" stroke-opacity="1" stroke-miterlimit="4"/><path stroke-linecap="butt" transform="matrix(0.735305, 0, 0, 0.732668, 3.303847, 1.098429)" fill-opacity="1" fill="#465fff" fill-rule="nonzero" stroke-linejoin="miter" d="M 260.835826 98.232601 L 277.713395 98.232601 C 278.058703 98.232601 278.398698 98.29658 278.717443 98.429868 C 279.041501 98.563157 279.328372 98.755092 279.572743 99.000343 C 279.822427 99.250926 280.013675 99.533497 280.146485 99.85339 C 280.279296 100.178614 280.348357 100.514501 280.348357 100.866383 L 280.348357 116.311859 C 280.348357 116.658409 280.279296 116.994297 280.146485 117.319521 C 280.013675 117.639413 279.822427 117.927316 279.572743 118.172567 C 279.328372 118.417818 279.041501 118.609754 278.717443 118.743042 C 278.398698 118.876331 278.058703 118.945641 277.713395 118.945641 L 260.835826 118.945641 C 260.485206 118.945641 260.150523 118.876331 259.826465 118.743042 C 259.502407 118.609754 259.220849 118.417818 258.971165 118.172567 C 258.726794 117.927316 258.535546 117.639413 258.402736 117.319521 C 258.269925 116.994297 258.200864 116.658409 258.200864 116.311859 L 258.200864 100.866383 C 258.200864 100.514501 258.269925 100.178614 258.402736 99.85339 C 258.535546 99.533497 258.726794 99.250926 258.971165 99.000343 C 259.220849 98.755092 259.502407 98.563157 259.826465 98.429868 C 260.150523 98.29658 260.485206 98.232601 260.835826 98.232601 Z M 260.835826 98.232601 " stroke="#465fff" stroke-width="0.753" stroke-opacity="1" stroke-miterlimit="4"/><path stroke-linecap="butt" transform="matrix(0.735305, 0, 0, 0.732668, 3.303847, 1.098429)" fill-opacity="1" fill="#465fff" fill-rule="nonzero" stroke-linejoin="miter" d="M 194.287096 98.232601 L 211.164666 98.232601 C 211.515286 98.232601 211.849968 98.29658 212.174026 98.429868 C 212.498084 98.563157 212.779642 98.755092 213.029326 99.000343 C 213.273698 99.250926 213.464945 99.533497 213.597756 99.85339 C 213.730566 100.178614 213.799628 100.514501 213.799628 100.866383 L 213.799628 116.311859 C 213.799628 116.658409 213.730566 116.994297 213.597756 117.319521 C 213.464945 117.639413 213.273698 117.927316 213.029326 118.172567 C 212.779642 118.417818 212.498084 118.609754 212.174026 118.743042 C 211.849968 118.876331 211.515286 118.945641 211.164666 118.945641 L 194.287096 118.945641 C 193.936476 118.945641 193.601793 118.876331 193.277736 118.743042 C 192.95899 118.609754 192.672119 118.417818 192.427748 118.172567 C 192.178064 117.927316 191.986817 117.639413 191.854006 117.319521 C 191.721195 116.994297 191.652134 116.658409 191.652134 116.311859 L 191.652134 100.866383 C 191.652134 100.514501 191.721195 100.178614 191.854006 99.85339 C 191.986817 99.533497 192.178064 99.250926 192.427748 99.000343 C 192.672119 98.755092 192.95899 98.563157 193.277736 98.429868 C 193.601793 98.29658 193.936476 98.232601 194.287096 98.232601 Z M 194.287096 98.232601 " stroke="#465fff" stroke-width="0.753" stroke-opacity="1" stroke-miterlimit="4"/><path stroke-linecap="butt" transform="matrix(0.735305, 0, 0, 0.732668, 3.303847, 1.098429)" fill-opacity="1" fill="#465fff" fill-rule="nonzero" stroke-linejoin="miter" d="M 210.027807 82.845772 L 262.328617 82.845772 C 262.679237 82.845772 263.013919 82.915082 263.337977 83.048371 C 263.656723 83.181659 263.943593 83.373595 264.187965 83.618846 C 264.437649 83.864096 264.628896 84.152 264.761707 84.471892 C 264.894517 84.797116 264.963579 85.133003 264.963579 85.479554 L 264.963579 100.92503 C 264.963579 101.276912 264.894517 101.612799 264.761707 101.932691 C 264.628896 102.257915 264.437649 102.540487 264.187965 102.791069 C 263.943593 103.03632 263.656723 103.228256 263.337977 103.361544 C 263.013919 103.494833 262.679237 103.558811 262.328617 103.558811 L 210.027807 103.558811 C 209.682499 103.558811 209.342504 103.494833 209.023759 103.361544 C 208.699701 103.228256 208.41283 103.03632 208.168459 102.791069 C 207.918775 102.540487 207.727528 102.257915 207.594717 101.932691 C 207.461906 101.612799 207.398157 101.276912 207.398157 100.92503 L 207.398157 85.479554 C 207.398157 85.133003 207.461906 84.797116 207.594717 84.471892 C 207.727528 84.152 207.918775 83.864096 208.168459 83.618846 C 208.41283 83.373595 208.699701 83.181659 209.023759 83.048371 C 209.342504 82.915082 209.682499 82.845772 210.027807 82.845772 Z M 210.027807 82.845772 " stroke="#465fff" stroke-width="0.753" stroke-opacity="1" stroke-miterlimit="4"/><g clip-path="url(#e7656ef583)"><path stroke-linecap="butt" transform="matrix(0.735305, 0, 0, 0.732668, 3.303847, 1.098429)" fill="none" stroke-linejoin="miter" d="M 180.766978 15.167182 L 291.233513 15.167182 C 292.14725 15.167182 293.060987 15.209834 293.974724 15.30047 C 294.888461 15.391107 295.791573 15.524395 296.694685 15.705668 C 297.592484 15.881608 298.479659 16.105533 299.361521 16.37211 C 300.238071 16.638687 301.098684 16.947917 301.948671 17.299798 C 302.793347 17.65168 303.622085 18.040883 304.429573 18.472738 C 305.237062 18.904593 306.0233 19.373768 306.788289 19.885596 C 307.547966 20.397424 308.286393 20.941241 308.992945 21.522379 C 309.70481 22.103518 310.379488 22.721976 311.027603 23.367093 C 311.681031 24.017541 312.29196 24.694647 312.876327 25.403742 C 313.455381 26.112837 314.00256 26.84859 314.512553 27.611 C 315.022546 28.373411 315.490039 29.157147 315.925658 29.967542 C 316.355964 30.777936 316.749083 31.604325 317.099703 32.45204 C 317.450323 33.299755 317.758444 34.163465 318.024065 35.037838 C 318.289686 35.917542 318.512808 36.802578 318.69343 37.703609 C 318.874053 38.604639 319.006863 39.511001 319.097175 40.422695 C 319.187486 41.334388 319.229985 42.251414 319.229985 43.168439 L 319.229985 117.479467 C 319.229985 118.396492 319.187486 119.308186 319.097175 120.219879 C 319.006863 121.136904 318.874053 122.043266 318.69343 122.938965 C 318.512808 123.839996 318.289686 124.730364 318.024065 125.604736 C 317.758444 126.484441 317.450323 127.34815 317.099703 128.190534 C 316.749083 129.038249 316.355964 129.86997 315.925658 130.675032 C 315.490039 131.485427 315.022546 132.269163 314.512553 133.031574 C 314.00256 133.793984 313.455381 134.529737 312.876327 135.238832 C 312.29196 135.947927 311.681031 136.630365 311.027603 137.275481 C 310.379488 137.925929 309.70481 138.539056 308.992945 139.120195 C 308.286393 139.706664 307.547966 140.250481 306.788289 140.756978 C 306.0233 141.268806 305.237062 141.737981 304.429573 142.169836 C 303.622085 142.601691 302.793347 142.996225 301.948671 143.348107 C 301.098684 143.699989 300.238071 144.003887 299.361521 144.270464 C 298.479659 144.537041 297.592484 144.760966 296.694685 144.942238 C 295.791573 145.118179 294.888461 145.251467 293.974724 145.342104 C 293.060987 145.43274 292.14725 145.475392 291.233513 145.475392 L 180.766978 145.475392 C 179.853241 145.475392 178.939504 145.43274 178.025768 145.342104 C 177.112031 145.251467 176.203606 145.118179 175.305807 144.942238 C 174.408007 144.760966 173.520832 144.537041 172.63897 144.270464 C 171.76242 144.003887 170.901808 143.699989 170.05182 143.348107 C 169.207145 142.996225 168.378406 142.601691 167.570918 142.169836 C 166.76343 141.737981 165.977191 141.268806 165.212202 140.756978 C 164.452525 140.250481 163.714099 139.706664 163.007546 139.120195 C 162.295682 138.539056 161.621004 137.925929 160.967576 137.275481 C 160.31946 136.630365 159.708531 135.947927 159.124165 135.238832 C 158.545111 134.529737 157.997931 133.793984 157.487938 133.031574 C 156.977946 132.269163 156.50514 131.485427 156.074834 130.675032 C 155.644527 129.86997 155.251408 129.038249 154.900788 128.190534 C 154.550168 127.34815 154.242047 126.484441 153.976426 125.604736 C 153.710805 124.730364 153.487683 123.839996 153.307061 122.938965 C 153.126438 122.043266 152.993628 121.136904 152.903317 120.219879 C 152.813006 119.308186 152.770506 118.396492 152.770506 117.479467 L 152.770506 43.168439 C 152.770506 42.251414 152.813006 41.334388 152.903317 40.422695 C 152.993628 39.511001 153.126438 38.604639 153.307061 37.703609 C 153.487683 36.802578 153.710805 35.917542 153.976426 35.037838 C 154.242047 34.163465 154.550168 33.299755 154.900788 32.45204 C 155.251408 31.604325 155.644527 30.777936 156.074834 29.967542 C 156.50514 29.157147 156.977946 28.373411 157.487938 27.611 C 157.997931 26.84859 158.545111 26.112837 159.124165 25.403742 C 159.708531 24.694647 160.31946 24.017541 160.967576 23.367093 C 161.621004 22.721976 162.295682 22.103518 163.007546 21.522379 C 163.714099 20.941241 164.452525 20.397424 165.212202 19.885596 C 165.977191 19.373768 166.76343 18.904593 167.570918 18.472738 C 168.378406 18.040883 169.207145 17.65168 170.05182 17.299798 C 170.901808 16.947917 171.76242 16.638687 172.63897 16.37211 C 173.520832 16.105533 174.408007 15.881608 175.305807 15.705668 C 176.203606 15.524395 177.112031 15.391107 178.025768 15.30047 C 178.939504 15.209834 179.853241 15.167182 180.766978 15.167182 Z M 180.766978 15.167182 " stroke="#465fff" stroke-width="24" stroke-opacity="1" stroke-miterlimit="4"/></g><g clip-path="url(#b49ffb8084)"><path fill="#465fff" d="M 7.9375 1.480469 L 22.71875 1.480469 C 23.019531 1.480469 23.320312 1.511719 23.617188 1.570312 C 23.914062 1.628906 24.203125 1.714844 24.480469 1.832031 C 24.761719 1.945312 25.027344 2.085938 25.277344 2.253906 C 25.527344 2.421875 25.761719 2.613281 25.976562 2.824219 C 26.1875 3.039062 26.378906 3.269531 26.546875 3.519531 C 26.714844 3.769531 26.859375 4.035156 26.972656 4.3125 C 27.089844 4.59375 27.175781 4.878906 27.234375 5.175781 C 27.292969 5.46875 27.324219 5.769531 27.324219 6.070312 L 27.324219 53.746094 C 27.324219 54.046875 27.292969 54.34375 27.234375 54.640625 C 27.175781 54.933594 27.089844 55.222656 26.972656 55.5 C 26.859375 55.777344 26.714844 56.042969 26.546875 56.292969 C 26.378906 56.542969 26.1875 56.777344 25.976562 56.988281 C 25.761719 57.203125 25.527344 57.390625 25.277344 57.558594 C 25.027344 57.726562 24.761719 57.867188 24.480469 57.984375 C 24.203125 58.097656 23.914062 58.1875 23.617188 58.246094 C 23.320312 58.304688 23.019531 58.332031 22.71875 58.332031 L 7.9375 58.332031 C 7.636719 58.332031 7.335938 58.304688 7.039062 58.246094 C 6.746094 58.1875 6.457031 58.097656 6.175781 57.984375 C 5.898438 57.867188 5.632812 57.726562 5.378906 57.558594 C 5.128906 57.390625 4.898438 57.203125 4.683594 56.988281 C 4.46875 56.777344 4.277344 56.542969 4.109375 56.292969 C 3.941406 56.042969 3.800781 55.777344 3.683594 55.5 C 3.570312 55.222656 3.480469 54.933594 3.421875 54.640625 C 3.363281 54.34375 3.335938 54.046875 3.335938 53.746094 L 3.335938 6.070312 C 3.335938 5.769531 3.363281 5.46875 3.421875 5.175781 C 3.480469 4.878906 3.570312 4.59375 3.683594 4.3125 C 3.800781 4.035156 3.941406 3.769531 4.109375 3.519531 C 4.277344 3.269531 4.46875 3.039062 4.683594 2.824219 C 4.898438 2.613281 5.128906 2.421875 5.378906 2.253906 C 5.632812 2.085938 5.898438 1.945312 6.175781 1.832031 C 6.457031 1.714844 6.746094 1.628906 7.039062 1.570312 C 7.335938 1.511719 7.636719 1.480469 7.9375 1.480469 Z M 7.9375 1.480469 " fill-opacity="1" fill-rule="nonzero"/></g><g clip-path="url(#8e8f8270ee)"><path stroke-linecap="butt" transform="matrix(0.735305, 0, 0, 0.732668, 3.303847, 1.098429)" fill="none" stroke-linejoin="miter" d="M 6.301677 0.521437 L 26.403887 0.521437 C 26.812944 0.521437 27.222001 0.564089 27.625745 0.644062 C 28.029489 0.724035 28.422608 0.841329 28.799791 1.001276 C 29.182285 1.15589 29.54353 1.347826 29.883525 1.577082 C 30.22352 1.806338 30.542265 2.067584 30.834449 2.355487 C 31.12132 2.648722 31.381628 2.963283 31.610063 3.304502 C 31.838497 3.64572 32.035056 4.008265 32.189117 4.386805 C 32.348489 4.770676 32.465363 5.159878 32.545049 5.565075 C 32.624735 5.964941 32.667235 6.37547 32.667235 6.785998 L 32.667235 71.857465 C 32.667235 72.267993 32.624735 72.67319 32.545049 73.078388 C 32.465363 73.478253 32.348489 73.872787 32.189117 74.251327 C 32.035056 74.629866 31.838497 74.992411 31.610063 75.33363 C 31.381628 75.674848 31.12132 75.994741 30.834449 76.282644 C 30.542265 76.575879 30.22352 76.831793 29.883525 77.061049 C 29.54353 77.290306 29.182285 77.482241 28.799791 77.642187 C 28.422608 77.796802 28.029489 77.919427 27.625745 77.999401 C 27.222001 78.079374 26.812944 78.116695 26.403887 78.116695 L 6.301677 78.116695 C 5.89262 78.116695 5.483564 78.079374 5.079819 77.999401 C 4.681388 77.919427 4.288268 77.796802 3.905774 77.642187 C 3.528592 77.482241 3.167347 77.290306 2.822039 77.061049 C 2.482044 76.831793 2.168611 76.575879 1.876428 76.282644 C 1.584245 75.994741 1.323936 75.674848 1.095502 75.33363 C 0.867068 74.992411 0.67582 74.629866 0.516448 74.251327 C 0.362387 73.872787 0.240202 73.478253 0.160515 73.078388 C 0.0808289 72.67319 0.0436419 72.267993 0.0436419 71.857465 L 0.0436419 6.785998 C 0.0436419 6.37547 0.0808289 5.964941 0.160515 5.565075 C 0.240202 5.159878 0.362387 4.770676 0.516448 4.386805 C 0.67582 4.008265 0.867068 3.64572 1.095502 3.304502 C 1.323936 2.963283 1.584245 2.648722 1.876428 2.355487 C 2.168611 2.067584 2.482044 1.806338 2.822039 1.577082 C 3.167347 1.347826 3.528592 1.15589 3.905774 1.001276 C 4.288268 0.841329 4.681388 0.724035 5.079819 0.644062 C 5.483564 0.564089 5.89262 0.521437 6.301677 0.521437 Z M 6.301677 0.521437 " stroke="#465fff" stroke-width="1" stroke-opacity="1" stroke-miterlimit="4"/></g><g clip-path="url(#c4c1a8bb62)"><path fill="#465fff" d="M 63.699219 3.417969 L 78.476562 3.417969 C 78.78125 3.417969 79.082031 3.449219 79.375 3.507812 C 79.671875 3.566406 79.960938 3.652344 80.242188 3.769531 C 80.519531 3.882812 80.785156 4.023438 81.035156 4.191406 C 81.289062 4.359375 81.519531 4.550781 81.734375 4.761719 C 81.949219 4.976562 82.140625 5.207031 82.308594 5.457031 C 82.476562 5.707031 82.617188 5.972656 82.734375 6.25 C 82.847656 6.53125 82.9375 6.816406 82.996094 7.113281 C 83.054688 7.40625 83.082031 7.707031 83.082031 8.007812 L 83.082031 111.886719 C 83.082031 112.1875 83.054688 112.488281 82.996094 112.785156 C 82.9375 113.078125 82.847656 113.367188 82.734375 113.644531 C 82.617188 113.921875 82.476562 114.1875 82.308594 114.4375 C 82.140625 114.6875 81.949219 114.917969 81.734375 115.132812 C 81.519531 115.347656 81.289062 115.535156 81.035156 115.703125 C 80.785156 115.871094 80.519531 116.011719 80.242188 116.128906 C 79.960938 116.242188 79.671875 116.328125 79.375 116.386719 C 79.082031 116.449219 78.78125 116.476562 78.476562 116.476562 L 63.699219 116.476562 C 63.394531 116.476562 63.097656 116.449219 62.800781 116.386719 C 62.503906 116.328125 62.214844 116.242188 61.9375 116.128906 C 61.65625 116.011719 61.390625 115.871094 61.140625 115.703125 C 60.890625 115.535156 60.65625 115.347656 60.441406 115.132812 C 60.230469 114.917969 60.039062 114.6875 59.871094 114.4375 C 59.703125 114.1875 59.558594 113.921875 59.445312 113.644531 C 59.328125 113.367188 59.242188 113.078125 59.183594 112.785156 C 59.125 112.488281 59.09375 112.1875 59.09375 111.886719 L 59.09375 8.007812 C 59.09375 7.707031 59.125 7.40625 59.183594 7.113281 C 59.242188 6.816406 59.328125 6.53125 59.445312 6.25 C 59.558594 5.972656 59.703125 5.707031 59.871094 5.457031 C 60.039062 5.207031 60.230469 4.976562 60.441406 4.761719 C 60.65625 4.550781 60.890625 4.359375 61.140625 4.191406 C 61.390625 4.023438 61.65625 3.882812 61.9375 3.769531 C 62.214844 3.652344 62.503906 3.566406 62.800781 3.507812 C 63.097656 3.449219 63.394531 3.417969 63.699219 3.417969 Z M 63.699219 3.417969 " fill-opacity="1" fill-rule="nonzero"/></g><g clip-path="url(#c81a6a7946)"><path stroke-linecap="butt" transform="matrix(0.735305, 0, 0, 0.732668, 3.303847, 1.098429)" fill="none" stroke-linejoin="miter" d="M 82.136523 3.165881 L 102.233421 3.165881 C 102.64779 3.165881 103.056847 3.208534 103.455278 3.288507 C 103.859023 3.36848 104.252142 3.485774 104.634636 3.64572 C 105.011819 3.800335 105.373063 3.99227 105.713058 4.221527 C 106.058366 4.450783 106.371799 4.712029 106.663982 4.999932 C 106.956166 5.293167 107.216474 5.607728 107.444909 5.948946 C 107.673343 6.290165 107.86459 6.65271 108.023963 7.031249 C 108.178023 7.41512 108.300209 7.804323 108.379895 8.20952 C 108.459581 8.609386 108.496768 9.019914 108.496768 9.430443 L 108.496768 151.212131 C 108.496768 151.62266 108.459581 152.033188 108.379895 152.438386 C 108.300209 152.838251 108.178023 153.232785 108.023963 153.611325 C 107.86459 153.989864 107.673343 154.352409 107.444909 154.693628 C 107.216474 155.034846 106.956166 155.349407 106.663982 155.642642 C 106.371799 155.935877 106.058366 156.191791 105.713058 156.421047 C 105.373063 156.650304 105.011819 156.842239 104.634636 157.002185 C 104.252142 157.1568 103.859023 157.274094 103.455278 157.354067 C 103.056847 157.439372 102.64779 157.476693 102.233421 157.476693 L 82.136523 157.476693 C 81.722154 157.476693 81.31841 157.439372 80.914665 157.354067 C 80.510921 157.274094 80.117802 157.1568 79.74062 157.002185 C 79.358125 156.842239 78.99688 156.650304 78.656885 156.421047 C 78.31689 156.191791 77.998145 155.935877 77.705962 155.642642 C 77.419091 155.349407 77.158782 155.034846 76.930348 154.693628 C 76.701914 154.352409 76.505354 153.989864 76.351294 153.611325 C 76.191921 153.232785 76.075048 152.838251 75.995361 152.438386 C 75.915675 152.033188 75.873175 151.62266 75.873175 151.212131 L 75.873175 9.430443 C 75.873175 9.019914 75.915675 8.609386 75.995361 8.20952 C 76.075048 7.804323 76.191921 7.41512 76.351294 7.031249 C 76.505354 6.65271 76.701914 6.290165 76.930348 5.948946 C 77.158782 5.607728 77.419091 5.293167 77.705962 4.999932 C 77.998145 4.712029 78.31689 4.450783 78.656885 4.221527 C 78.99688 3.99227 79.358125 3.800335 79.74062 3.64572 C 80.117802 3.485774 80.510921 3.36848 80.914665 3.288507 C 81.31841 3.208534 81.722154 3.165881 82.136523 3.165881 Z M 82.136523 3.165881 " stroke="#465fff" stroke-width="1" stroke-opacity="1" stroke-miterlimit="4"/></g><path stroke-linecap="butt" transform="matrix(0, -0.732668, 0.735305, 0, -51.513336, 80.327756)" fill-opacity="1" fill="#465fff" fill-rule="nonzero" stroke-linejoin="miter" d="M 23.058415 91.34401 L 43.158327 91.34401 C 43.568855 91.34401 43.974053 91.386509 44.37925 91.466196 C 44.784447 91.545882 45.17365 91.662755 45.552189 91.822128 C 45.93606 91.976188 46.293273 92.172748 46.634492 92.401182 C 46.981042 92.629616 47.295603 92.889925 47.583506 93.176796 C 47.876741 93.468979 48.137987 93.787725 48.361911 94.12772 C 48.591168 94.467715 48.788435 94.82896 48.943049 95.211454 C 49.102996 95.588636 49.22029 95.981756 49.300263 96.3855 C 49.380236 96.789244 49.417557 97.198301 49.417557 97.607357 L 49.417557 162.679233 C 49.417557 163.08829 49.380236 163.497346 49.300263 163.901091 C 49.22029 164.299522 49.102996 164.692642 48.943049 165.075136 C 48.788435 165.452318 48.591168 165.813563 48.361911 166.158871 C 48.137987 166.498866 47.876741 166.812299 47.583506 167.104482 C 47.295603 167.396665 46.981042 167.656974 46.634492 167.885408 C 46.293273 168.113842 45.93606 168.30509 45.552189 168.464462 C 45.17365 168.618523 44.784447 168.740708 44.37925 168.820395 C 43.974053 168.900081 43.568855 168.94258 43.158327 168.94258 L 23.058415 168.94258 C 22.647886 168.94258 22.237357 168.900081 21.837492 168.820395 C 21.432294 168.740708 21.03776 168.618523 20.659221 168.464462 C 20.280681 168.30509 19.918137 168.113842 19.576918 167.885408 C 19.235699 167.656974 18.921138 167.396665 18.627903 167.104482 C 18.34 166.812299 18.078755 166.498866 17.849498 166.158871 C 17.620242 165.813563 17.428307 165.452318 17.26836 165.075136 C 17.113746 164.692642 16.996452 164.299522 16.916479 163.901091 C 16.836505 163.497346 16.793853 163.08829 16.793853 162.679233 L 16.793853 97.607357 C 16.793853 97.198301 16.836505 96.789244 16.916479 96.3855 C 16.996452 95.981756 17.113746 95.588636 17.26836 95.211454 C 17.428307 94.82896 17.620242 94.467715 17.849498 94.12772 C 18.078755 93.787725 18.34 93.468979 18.627903 93.176796 C 18.921138 92.889925 19.235699 92.629616 19.576918 92.401182 C 19.918137 92.172748 20.280681 91.976188 20.659221 91.822128 C 21.03776 91.662755 21.432294 91.545882 21.837492 91.466196 C 22.237357 91.386509 22.647886 91.34401 23.058415 91.34401 Z M 23.058415 91.34401 " stroke="#465fff" stroke-width="1" stroke-opacity="1" stroke-miterlimit="4"/></svg>